<mxfile host="app.diagrams.net" modified="2023-06-21T10:11:47.755Z" agent="Mozilla/5.0 (Windows NT 10.0; Win64; x64) AppleWebKit/537.36 (KHTML, like Gecko) Chrome/114.0.0.0 Safari/537.36" etag="M3kunJfKGtSmXbfuRJKp" version="21.4.0" type="github">
  <diagram name="Page-1" id="c37626ed-c26b-45fb-9056-f9ebc6bb27b6">
    <mxGraphModel dx="869" dy="463" grid="1" gridSize="10" guides="1" tooltips="1" connect="1" arrows="1" fold="1" page="1" pageScale="1" pageWidth="1169" pageHeight="827" background="none" math="0" shadow="0">
      <root>
        <mxCell id="0" />
        <mxCell id="1" parent="0" />
        <mxCell id="CEXHskLTJOovul5yJfJE-6" value="" style="ellipse;whiteSpace=wrap;html=1;fillColor=#dae8fc;strokeColor=#6c8ebf;" vertex="1" parent="1">
          <mxGeometry x="728" y="472" width="270" height="210" as="geometry" />
        </mxCell>
        <mxCell id="CEXHskLTJOovul5yJfJE-5" value="" style="ellipse;whiteSpace=wrap;html=1;fillColor=#fff2cc;strokeColor=#d6b656;" vertex="1" parent="1">
          <mxGeometry x="450" y="472" width="270" height="210" as="geometry" />
        </mxCell>
        <mxCell id="CEXHskLTJOovul5yJfJE-2" value="" style="ellipse;whiteSpace=wrap;html=1;fillColor=#e1d5e7;strokeColor=#9673a6;" vertex="1" parent="1">
          <mxGeometry x="171" y="470" width="270" height="210" as="geometry" />
        </mxCell>
        <mxCell id="CEXHskLTJOovul5yJfJE-1" value="" style="ellipse;whiteSpace=wrap;html=1;fillColor=#d5e8d4;strokeColor=#82b366;" vertex="1" parent="1">
          <mxGeometry x="255" y="100" width="675" height="260" as="geometry" />
        </mxCell>
        <mxCell id="8NDlUTmJP2dTjy302EjL-72" value="Leaf-2&lt;br&gt;L0:&amp;nbsp;10.1.1.2/32&amp;nbsp;" style="text;html=1;strokeColor=none;fillColor=none;align=center;verticalAlign=middle;whiteSpace=wrap;rounded=0;fontSize=20;fontFamily=Helvetica;horizontal=1;" parent="1" vertex="1">
          <mxGeometry x="516" y="611" width="150" height="50" as="geometry" />
        </mxCell>
        <mxCell id="8NDlUTmJP2dTjy302EjL-38" style="edgeStyle=none;rounded=0;hachureGap=4;orthogonalLoop=1;jettySize=auto;html=1;exitX=0.5;exitY=0;exitDx=0;exitDy=0;exitPerimeter=0;entryX=0.5;entryY=1;entryDx=0;entryDy=0;entryPerimeter=0;fontFamily=Architects Daughter;fontSource=https%3A%2F%2Ffonts.googleapis.com%2Fcss%3Ffamily%3DArchitects%2BDaughter;fontSize=16;strokeColor=#EA6B66;endArrow=none;endFill=0;strokeWidth=3;" parent="1" source="8NDlUTmJP2dTjy302EjL-2" target="8NDlUTmJP2dTjy302EjL-5" edge="1">
          <mxGeometry relative="1" as="geometry">
            <mxPoint x="355" y="312" as="sourcePoint" />
          </mxGeometry>
        </mxCell>
        <mxCell id="8NDlUTmJP2dTjy302EjL-45" style="edgeStyle=none;rounded=0;hachureGap=4;orthogonalLoop=1;jettySize=auto;html=1;exitX=0.5;exitY=0;exitDx=0;exitDy=0;exitPerimeter=0;entryX=0.5;entryY=1;entryDx=0;entryDy=0;entryPerimeter=0;fontFamily=Architects Daughter;fontSource=https%3A%2F%2Ffonts.googleapis.com%2Fcss%3Ffamily%3DArchitects%2BDaughter;fontSize=16;strokeWidth=3;strokeColor=#EA6B66;endArrow=none;endFill=0;" parent="1" source="8NDlUTmJP2dTjy302EjL-11" target="8NDlUTmJP2dTjy302EjL-5" edge="1">
          <mxGeometry relative="1" as="geometry">
            <mxPoint x="515" y="312" as="sourcePoint" />
          </mxGeometry>
        </mxCell>
        <mxCell id="8NDlUTmJP2dTjy302EjL-5" value="" style="shape=mxgraph.cisco.misc.route_switch_processor;html=1;dashed=0;fillColor=#036897;strokeColor=#ffffff;strokeWidth=2;verticalLabelPosition=bottom;verticalAlign=top;rounded=0;shadow=0;comic=0;fontFamily=Verdana;fontSize=12;" parent="1" vertex="1">
          <mxGeometry x="380" y="179" width="91" height="116" as="geometry" />
        </mxCell>
        <mxCell id="8NDlUTmJP2dTjy302EjL-7" value="" style="shape=mxgraph.cisco.misc.route_switch_processor;html=1;dashed=0;fillColor=#036897;strokeColor=#ffffff;strokeWidth=2;verticalLabelPosition=bottom;verticalAlign=top;rounded=0;shadow=0;comic=0;fontFamily=Verdana;fontSize=12;" parent="1" vertex="1">
          <mxGeometry x="720" y="179" width="91" height="116" as="geometry" />
        </mxCell>
        <mxCell id="8NDlUTmJP2dTjy302EjL-2" value="" style="shape=mxgraph.cisco.switches.layer_3_switch;sketch=0;html=1;pointerEvents=1;dashed=0;fillColor=#036897;strokeColor=#ffffff;strokeWidth=2;verticalLabelPosition=bottom;verticalAlign=top;align=center;outlineConnect=0;hachureGap=4;jiggle=2;curveFitting=1;fontFamily=Architects Daughter;fontSource=https%3A%2F%2Ffonts.googleapis.com%2Fcss%3Ffamily%3DArchitects%2BDaughter;fontSize=20;" parent="1" vertex="1">
          <mxGeometry x="259" y="522" width="90" height="90" as="geometry" />
        </mxCell>
        <mxCell id="8NDlUTmJP2dTjy302EjL-10" value="" style="shape=mxgraph.cisco.switches.layer_3_switch;sketch=0;html=1;pointerEvents=1;dashed=0;fillColor=#036897;strokeColor=#ffffff;strokeWidth=2;verticalLabelPosition=bottom;verticalAlign=top;align=center;outlineConnect=0;hachureGap=4;jiggle=2;curveFitting=1;fontFamily=Architects Daughter;fontSource=https%3A%2F%2Ffonts.googleapis.com%2Fcss%3Ffamily%3DArchitects%2BDaughter;fontSize=20;" parent="1" vertex="1">
          <mxGeometry x="545" y="522" width="90" height="90" as="geometry" />
        </mxCell>
        <mxCell id="8NDlUTmJP2dTjy302EjL-67" value="Spine-1&lt;br&gt;L0:&amp;nbsp;10.1.0.1/32" style="text;html=1;strokeColor=none;fillColor=none;align=center;verticalAlign=middle;whiteSpace=wrap;rounded=0;fontSize=20;fontFamily=Helvetica;horizontal=1;" parent="1" vertex="1">
          <mxGeometry x="354.63" y="129" width="141.75" height="40" as="geometry" />
        </mxCell>
        <mxCell id="8NDlUTmJP2dTjy302EjL-68" value="Leaf-1&lt;br&gt;L0:&amp;nbsp;10.1.1.1/32" style="text;html=1;strokeColor=none;fillColor=none;align=center;verticalAlign=middle;whiteSpace=wrap;rounded=0;fontSize=20;fontFamily=Helvetica;horizontal=1;" parent="1" vertex="1">
          <mxGeometry x="221.5" y="611" width="155" height="50" as="geometry" />
        </mxCell>
        <mxCell id="8NDlUTmJP2dTjy302EjL-69" value="Spine-2&lt;br&gt;L0:&amp;nbsp;10.1.0.2/32" style="text;html=1;strokeColor=none;fillColor=none;align=center;verticalAlign=middle;whiteSpace=wrap;rounded=0;fontSize=20;fontFamily=Helvetica;horizontal=1;" parent="1" vertex="1">
          <mxGeometry x="695" y="129" width="141" height="40" as="geometry" />
        </mxCell>
        <mxCell id="8NDlUTmJP2dTjy302EjL-74" value="Leaf-3&lt;br&gt;L0:&amp;nbsp;10.1.1.3/32" style="text;html=1;strokeColor=none;fillColor=none;align=center;verticalAlign=middle;whiteSpace=wrap;rounded=0;fontSize=20;fontFamily=Helvetica;horizontal=1;" parent="1" vertex="1">
          <mxGeometry x="790" y="616" width="156" height="40" as="geometry" />
        </mxCell>
        <mxCell id="V7yZK2pKeIdHbW1tO0_u-18" value="" style="edgeStyle=none;rounded=0;hachureGap=4;orthogonalLoop=1;jettySize=auto;html=1;exitX=0.5;exitY=0;exitDx=0;exitDy=0;exitPerimeter=0;entryX=0.5;entryY=1;entryDx=0;entryDy=0;entryPerimeter=0;fontFamily=Architects Daughter;fontSource=https%3A%2F%2Ffonts.googleapis.com%2Fcss%3Ffamily%3DArchitects%2BDaughter;fontSize=16;endArrow=none;endFill=0;strokeWidth=3;strokeColor=#EA6B66;" parent="1" source="8NDlUTmJP2dTjy302EjL-2" target="8NDlUTmJP2dTjy302EjL-7" edge="1">
          <mxGeometry relative="1" as="geometry">
            <mxPoint x="670" y="312" as="sourcePoint" />
            <mxPoint x="665" y="318" as="targetPoint" />
          </mxGeometry>
        </mxCell>
        <mxCell id="V7yZK2pKeIdHbW1tO0_u-21" value="" style="edgeStyle=none;rounded=0;hachureGap=4;orthogonalLoop=1;jettySize=auto;html=1;exitX=0.5;exitY=0;exitDx=0;exitDy=0;exitPerimeter=0;entryX=0.5;entryY=1;entryDx=0;entryDy=0;entryPerimeter=0;fontFamily=Architects Daughter;fontSource=https%3A%2F%2Ffonts.googleapis.com%2Fcss%3Ffamily%3DArchitects%2BDaughter;fontSize=16;endArrow=none;endFill=0;strokeWidth=3;strokeColor=#EA6B66;" parent="1" source="8NDlUTmJP2dTjy302EjL-11" target="8NDlUTmJP2dTjy302EjL-7" edge="1">
          <mxGeometry relative="1" as="geometry">
            <mxPoint x="810" y="312" as="sourcePoint" />
            <mxPoint x="805" y="328" as="targetPoint" />
          </mxGeometry>
        </mxCell>
        <mxCell id="V7yZK2pKeIdHbW1tO0_u-28" value="" style="edgeStyle=none;rounded=0;hachureGap=4;orthogonalLoop=1;jettySize=auto;html=1;exitX=0.5;exitY=0;exitDx=0;exitDy=0;exitPerimeter=0;entryX=0.5;entryY=1;entryDx=0;entryDy=0;entryPerimeter=0;fontFamily=Architects Daughter;fontSource=https%3A%2F%2Ffonts.googleapis.com%2Fcss%3Ffamily%3DArchitects%2BDaughter;fontSize=16;endArrow=none;endFill=0;strokeColor=#EA6B66;strokeWidth=3;" parent="1" source="8NDlUTmJP2dTjy302EjL-10" target="8NDlUTmJP2dTjy302EjL-7" edge="1">
          <mxGeometry relative="1" as="geometry">
            <mxPoint x="590" y="522" as="sourcePoint" />
            <mxPoint x="620" y="492.0000000000001" as="targetPoint" />
          </mxGeometry>
        </mxCell>
        <mxCell id="V7yZK2pKeIdHbW1tO0_u-30" value="" style="edgeStyle=none;rounded=0;hachureGap=4;orthogonalLoop=1;jettySize=auto;html=1;exitX=0.5;exitY=0;exitDx=0;exitDy=0;exitPerimeter=0;entryX=0.5;entryY=1;entryDx=0;entryDy=0;entryPerimeter=0;fontFamily=Architects Daughter;fontSource=https%3A%2F%2Ffonts.googleapis.com%2Fcss%3Ffamily%3DArchitects%2BDaughter;fontSize=16;endArrow=none;endFill=0;strokeWidth=3;strokeColor=#EA6B66;" parent="1" source="8NDlUTmJP2dTjy302EjL-10" target="8NDlUTmJP2dTjy302EjL-5" edge="1">
          <mxGeometry relative="1" as="geometry">
            <mxPoint x="590" y="522" as="sourcePoint" />
            <mxPoint x="545" y="492" as="targetPoint" />
          </mxGeometry>
        </mxCell>
        <mxCell id="V7yZK2pKeIdHbW1tO0_u-50" value="Eth1:&lt;b&gt;1&lt;/b&gt;" style="text;html=1;strokeColor=#d6b656;fillColor=#fff2cc;align=center;verticalAlign=middle;whiteSpace=wrap;rounded=1;fontSize=14;fontFamily=Helvetica;horizontal=1;" parent="1" vertex="1">
          <mxGeometry x="252" y="480" width="50" height="20" as="geometry" />
        </mxCell>
        <mxCell id="V7yZK2pKeIdHbW1tO0_u-56" value="AS 65000" style="text;html=1;strokeColor=none;fillColor=none;align=center;verticalAlign=middle;whiteSpace=wrap;rounded=0;fontSize=24;fontFamily=Helvetica;horizontal=1;fontStyle=1;fontColor=#000000;" parent="1" vertex="1">
          <mxGeometry x="455" y="110" width="270" height="28" as="geometry" />
        </mxCell>
        <mxCell id="V7yZK2pKeIdHbW1tO0_u-65" value="Eth2:&lt;b&gt;7&lt;/b&gt;" style="text;html=1;strokeColor=#d6b656;fillColor=#fff2cc;align=center;verticalAlign=middle;whiteSpace=wrap;rounded=1;fontSize=14;fontFamily=Helvetica;horizontal=1;" parent="1" vertex="1">
          <mxGeometry x="318" y="500" width="50" height="20" as="geometry" />
        </mxCell>
        <mxCell id="V7yZK2pKeIdHbW1tO0_u-66" value="Eth1:&lt;b&gt;0&lt;/b&gt;" style="text;html=1;strokeColor=#d6b656;fillColor=#fff2cc;align=center;verticalAlign=middle;whiteSpace=wrap;rounded=1;fontSize=14;fontFamily=Helvetica;horizontal=1;" parent="1" vertex="1">
          <mxGeometry x="360" y="302" width="50" height="20" as="geometry" />
        </mxCell>
        <mxCell id="V7yZK2pKeIdHbW1tO0_u-67" value="Eth2:&lt;b&gt;2&lt;/b&gt;" style="text;html=1;strokeColor=#d6b656;fillColor=#fff2cc;align=center;verticalAlign=middle;whiteSpace=wrap;rounded=1;fontSize=14;fontFamily=Helvetica;horizontal=1;" parent="1" vertex="1">
          <mxGeometry x="416" y="322" width="50" height="20" as="geometry" />
        </mxCell>
        <mxCell id="V7yZK2pKeIdHbW1tO0_u-68" value="Eth1:&lt;b&gt;3&lt;/b&gt;" style="text;html=1;strokeColor=#d6b656;fillColor=#fff2cc;align=center;verticalAlign=middle;whiteSpace=wrap;rounded=1;fontSize=14;fontFamily=Helvetica;horizontal=1;" parent="1" vertex="1">
          <mxGeometry x="520.12" y="492" width="50" height="20" as="geometry" />
        </mxCell>
        <mxCell id="V7yZK2pKeIdHbW1tO0_u-69" value="Eth1:&lt;b&gt;6&lt;/b&gt;" style="text;html=1;strokeColor=#d6b656;fillColor=#fff2cc;align=center;verticalAlign=middle;whiteSpace=wrap;rounded=1;fontSize=14;fontFamily=Helvetica;horizontal=1;" parent="1" vertex="1">
          <mxGeometry x="666" y="299" width="50" height="20" as="geometry" />
        </mxCell>
        <mxCell id="V7yZK2pKeIdHbW1tO0_u-70" value="Eth3:&lt;b&gt;4&lt;/b&gt;" style="text;html=1;strokeColor=#d6b656;fillColor=#fff2cc;align=center;verticalAlign=middle;whiteSpace=wrap;rounded=1;fontSize=14;fontFamily=Helvetica;horizontal=1;" parent="1" vertex="1">
          <mxGeometry x="477.5" y="302" width="50" height="20" as="geometry" />
        </mxCell>
        <mxCell id="V7yZK2pKeIdHbW1tO0_u-71" value="Eth1:&lt;b&gt;5&lt;/b&gt;" style="text;html=1;strokeColor=#d6b656;fillColor=#fff2cc;align=center;verticalAlign=middle;whiteSpace=wrap;rounded=1;fontSize=14;fontFamily=Helvetica;horizontal=1;" parent="1" vertex="1">
          <mxGeometry x="772" y="500" width="50" height="20" as="geometry" />
        </mxCell>
        <mxCell id="V7yZK2pKeIdHbW1tO0_u-72" value="Eth2:&lt;b&gt;9&lt;/b&gt;" style="text;html=1;strokeColor=#d6b656;fillColor=#fff2cc;align=center;verticalAlign=middle;whiteSpace=wrap;rounded=1;fontSize=14;fontFamily=Helvetica;horizontal=1;" parent="1" vertex="1">
          <mxGeometry x="612" y="492" width="50" height="20" as="geometry" />
        </mxCell>
        <mxCell id="V7yZK2pKeIdHbW1tO0_u-73" value="Eth2:&lt;b&gt;8&lt;/b&gt;" style="text;html=1;strokeColor=#d6b656;fillColor=#fff2cc;align=center;verticalAlign=middle;whiteSpace=wrap;rounded=1;fontSize=14;fontFamily=Helvetica;horizontal=1;" parent="1" vertex="1">
          <mxGeometry x="720" y="322" width="50" height="20" as="geometry" />
        </mxCell>
        <mxCell id="V7yZK2pKeIdHbW1tO0_u-74" value="Eth3:&lt;b&gt;10&lt;/b&gt;" style="text;html=1;strokeColor=#d6b656;fillColor=#fff2cc;align=center;verticalAlign=middle;whiteSpace=wrap;rounded=1;fontSize=14;fontFamily=Helvetica;horizontal=1;" parent="1" vertex="1">
          <mxGeometry x="780" y="302" width="50" height="20" as="geometry" />
        </mxCell>
        <mxCell id="V7yZK2pKeIdHbW1tO0_u-75" value="Eth2:&lt;b&gt;11&lt;/b&gt;" style="text;html=1;strokeColor=#d6b656;fillColor=#fff2cc;align=center;verticalAlign=middle;whiteSpace=wrap;rounded=1;fontSize=14;fontFamily=Helvetica;horizontal=1;" parent="1" vertex="1">
          <mxGeometry x="848" y="477" width="50" height="20" as="geometry" />
        </mxCell>
        <mxCell id="8NDlUTmJP2dTjy302EjL-11" value="" style="shape=mxgraph.cisco.switches.layer_3_switch;sketch=0;html=1;pointerEvents=1;dashed=0;fillColor=#036897;strokeColor=#ffffff;strokeWidth=2;verticalLabelPosition=bottom;verticalAlign=top;align=center;outlineConnect=0;hachureGap=4;jiggle=2;curveFitting=1;fontFamily=Architects Daughter;fontSource=https%3A%2F%2Ffonts.googleapis.com%2Fcss%3Ffamily%3DArchitects%2BDaughter;fontSize=20;" parent="1" vertex="1">
          <mxGeometry x="818" y="522" width="90" height="90" as="geometry" />
        </mxCell>
        <mxCell id="CEXHskLTJOovul5yJfJE-7" value="AS 65001" style="text;html=1;strokeColor=none;fillColor=none;align=center;verticalAlign=middle;whiteSpace=wrap;rounded=0;fontSize=24;fontFamily=Helvetica;horizontal=1;fontStyle=1;fontColor=#000000;" vertex="1" parent="1">
          <mxGeometry x="163.63" y="685" width="270" height="28" as="geometry" />
        </mxCell>
        <mxCell id="CEXHskLTJOovul5yJfJE-8" value="AS 65002" style="text;html=1;strokeColor=none;fillColor=none;align=center;verticalAlign=middle;whiteSpace=wrap;rounded=0;fontSize=24;fontFamily=Helvetica;horizontal=1;fontStyle=1;fontColor=#000000;" vertex="1" parent="1">
          <mxGeometry x="450" y="690" width="270" height="28" as="geometry" />
        </mxCell>
        <mxCell id="CEXHskLTJOovul5yJfJE-9" value="AS 65003" style="text;html=1;strokeColor=none;fillColor=none;align=center;verticalAlign=middle;whiteSpace=wrap;rounded=0;fontSize=24;fontFamily=Helvetica;horizontal=1;fontStyle=1;fontColor=#000000;" vertex="1" parent="1">
          <mxGeometry x="738" y="690" width="270" height="28" as="geometry" />
        </mxCell>
      </root>
    </mxGraphModel>
  </diagram>
</mxfile>
